<svg xmlns="http://www.w3.org/2000/svg" width="440" height="160" viewBox="0 0 440 160" role="img" aria-label="AgriSmart — Plant disease detection and advice for farmers, on mobile and in the field.">
  <style>
    .glow { animation: glow 3s ease-in-out infinite; }
    @keyframes glow { 50% { opacity: .35 } }
    .go { animation: go 1.8s ease-in-out infinite; }
    @keyframes go { 50% { transform: translate(3px, -3px) } }
    @media (prefers-reduced-motion: reduce) { .glow, .go { animation: none } }
  </style>
  <defs><linearGradient id="bg" x1="0" y1="0" x2="1" y2="1"><stop offset="0" stop-color="#15191e"/><stop offset="1" stop-color="#0e1115"/></linearGradient></defs>
  <rect x="1" y="1" width="438" height="158" rx="14" fill="url(#bg)" stroke="#2a3038"/>
  <rect class="glow" x="1" y="1" width="4" height="158" rx="2" fill="#3fb950"/>
  <text x="24" y="30" font-family="ui-monospace, SFMono-Regular, Menlo, Consolas, 'Liberation Mono', monospace" font-size="10.5" fill="#3fb950">ACADEMIC · WITH INNOVUP</text>
  <text x="24" y="58" font-family="'Segoe UI', Inter, Helvetica, Arial, sans-serif" font-size="19" font-weight="700" fill="#e6edf3">AgriSmart</text>
  <text font-family="'Segoe UI', Inter, Helvetica, Arial, sans-serif" font-size="12.5" fill="#9aa4ae"><tspan x="24" y="84">Plant disease detection and advice</tspan><tspan x="24" y="102">for farmers, on mobile and in the field.</tspan></text>
  <g font-family="ui-monospace, SFMono-Regular, Menlo, Consolas, 'Liberation Mono', monospace" font-size="10.5" fill="#c9d1d9"><rect x="24" y="122" width="65" height="20" rx="10" fill="none" stroke="#30363d"/><text x="56.5" y="136" text-anchor="middle">PyTorch</text><rect x="95" y="122" width="79" height="20" rx="10" fill="none" stroke="#30363d"/><text x="134.5" y="136" text-anchor="middle">LangGraph</text><rect x="180" y="122" width="65" height="20" rx="10" fill="none" stroke="#30363d"/><text x="212.5" y="136" text-anchor="middle">Flutter</text><rect x="251" y="122" width="51" height="20" rx="10" fill="none" stroke="#30363d"/><text x="276.5" y="136" text-anchor="middle">ESP32</text></g>
  <g class="go"><path d="M408 26l8-8M410 18h6v6" fill="none" stroke="#7d8590" stroke-width="1.6" stroke-linecap="round" stroke-linejoin="round"/></g>
</svg>
